<svg version="1.1" id="Layer_1" xmlns="http://www.w3.org/2000/svg" xmlns:xlink="http://www.w3.org/1999/xlink" x="0px" y="0px"
	 width="100%" viewBox="0 0 512 512" enable-background="new 0 0 512 512" xml:space="preserve">
<path fill="#000000" opacity="1.000000" stroke="none" 
	d="
M513.000000,178.000000 
	C513.000000,289.972778 513.000000,401.445557 513.000000,512.959167 
	C342.402222,512.959167 171.804413,512.959167 1.103307,512.959167 
	C1.103307,342.443909 1.103307,171.887756 1.103307,1.165792 
	C171.666534,1.165792 342.333252,1.165792 513.000000,1.165792 
	C513.000000,59.862217 513.000000,118.681107 513.000000,178.000000 
M454.056641,185.414261 
	C465.335419,170.139587 469.268982,153.174469 464.917633,134.674057 
	C461.842896,121.601318 454.710571,110.737793 443.491669,103.308540 
	C433.108551,96.432755 421.516937,92.487770 408.757233,92.962776 
	C406.947021,93.030167 405.118958,92.617348 404.706818,92.574188 
	C410.846497,85.225433 417.183899,77.640045 423.256561,70.371536 
	C429.781769,74.195374 434.897400,77.193176 440.575012,80.520294 
	C458.737579,56.051224 476.786530,31.735256 495.134827,7.015965 
	C491.331665,7.015965 488.308655,6.770820 485.337250,7.058515 
	C472.659027,8.286024 459.999329,9.703565 447.326233,10.986011 
	C439.998962,11.727491 432.650085,12.259262 425.326874,13.035729 
	C413.483185,14.291488 401.663025,15.774149 389.813110,16.963604 
	C381.330261,17.815084 372.805908,18.247993 364.318024,19.056257 
	C359.959137,19.471334 355.639587,20.299301 350.032227,21.128485 
	C360.393219,27.742123 369.561310,33.594296 378.905548,39.558907 
	C343.702789,50.303452 308.791290,60.959087 273.251007,71.806648 
	C271.665710,59.195461 267.752716,48.358822 258.082489,40.626396 
	C248.401154,32.885128 237.286652,29.652718 225.043900,32.068188 
	C209.726227,35.090336 197.643967,46.150642 195.214203,64.847343 
	C193.042053,81.561623 202.911911,98.850914 226.466354,106.837090 
	C225.009628,109.747444 223.241104,112.481598 222.222672,115.471275 
	C219.588882,123.203094 215.071060,127.787376 206.471909,129.466232 
	C196.885956,131.337769 187.677567,135.143341 177.427658,138.384430 
	C178.162552,136.843414 178.436035,136.296173 178.687439,135.738953 
	C186.789276,117.782257 185.965652,100.257500 175.736298,83.405228 
	C169.862610,73.728668 161.678375,66.590469 150.982346,62.420033 
	C141.772522,58.829060 132.395493,58.879391 123.020470,61.058708 
	C110.798889,63.899746 99.437096,68.776512 90.099945,77.431297 
	C68.344635,97.596725 71.162041,134.377380 89.875481,153.474884 
	C92.811394,156.471039 95.065300,160.135468 97.273346,163.019165 
	C88.624825,165.663956 78.249275,168.776993 67.928345,172.061630 
	C66.481873,172.521973 64.516220,173.582352 64.148712,174.781189 
	C63.066696,178.310883 62.612049,182.040771 62.010517,185.708481 
	C59.310093,202.173813 56.747433,218.662460 53.934441,235.108383 
	C51.426388,249.771500 48.555264,264.372406 46.028477,279.032471 
	C43.552299,293.398895 41.443150,307.828949 38.928646,322.188293 
	C35.749641,340.342407 32.205296,358.432556 29.036119,376.588257 
	C25.615826,396.182587 22.446747,415.820801 19.121754,435.717102 
	C146.177933,459.648376 273.299622,483.591980 400.262238,507.505615 
	C401.036957,505.537415 401.678589,504.395508 401.939423,503.172394 
	C406.646301,481.099396 411.309814,459.017120 415.977448,436.935730 
	C422.312134,406.968079 428.691162,377.009735 434.960693,347.028473 
	C441.034149,317.984772 446.851562,288.886536 453.126831,259.886993 
	C454.318207,254.381378 454.885895,250.515747 449.380310,246.570084 
	C439.201202,239.275055 429.789001,230.910873 420.046661,223.005188 
	C414.096313,218.176620 408.126068,213.372620 402.249054,208.625656 
	C408.461975,207.862106 414.372070,207.514694 420.117767,206.353790 
	C433.671448,203.615326 444.435120,196.060165 454.056641,185.414261 
z"/>
<path fill="#FEFEFE" opacity="1.000000" stroke="none" 
	d="
M453.814819,185.684387 
	C444.435120,196.060165 433.671448,203.615326 420.117767,206.353790 
	C414.372070,207.514694 408.461975,207.862106 402.249054,208.625656 
	C408.126068,213.372620 414.096313,218.176620 420.046661,223.005188 
	C429.789001,230.910873 439.201202,239.275055 449.380310,246.570084 
	C454.885895,250.515747 454.318207,254.381378 453.126831,259.886993 
	C446.851562,288.886536 441.034149,317.984772 434.960693,347.028473 
	C428.691162,377.009735 422.312134,406.968079 415.977448,436.935730 
	C411.309814,459.017120 406.646301,481.099396 401.939423,503.172394 
	C401.678589,504.395508 401.036957,505.537415 400.262238,507.505615 
	C273.299622,483.591980 146.177933,459.648376 19.121754,435.717102 
	C22.446747,415.820801 25.615826,396.182587 29.036119,376.588257 
	C32.205296,358.432556 35.749641,340.342407 38.928646,322.188293 
	C41.443150,307.828949 43.552299,293.398895 46.028477,279.032471 
	C48.555264,264.372406 51.426388,249.771500 53.934441,235.108383 
	C56.747433,218.662460 59.310093,202.173813 62.010517,185.708481 
	C62.612049,182.040771 63.066696,178.310883 64.148712,174.781189 
	C64.516220,173.582352 66.481873,172.521973 67.928345,172.061630 
	C78.249275,168.776993 88.624825,165.663956 97.273346,163.019165 
	C95.065300,160.135468 92.811394,156.471039 89.875481,153.474884 
	C71.162041,134.377380 68.344635,97.596725 90.099945,77.431297 
	C99.437096,68.776512 110.798889,63.899746 123.020470,61.058708 
	C132.395493,58.879391 141.772522,58.829060 150.982346,62.420033 
	C161.678375,66.590469 169.862610,73.728668 175.736298,83.405228 
	C185.965652,100.257500 186.789276,117.782257 178.687439,135.738953 
	C178.436035,136.296173 178.162552,136.843414 177.427658,138.384430 
	C187.677567,135.143341 196.885956,131.337769 206.471909,129.466232 
	C215.071060,127.787376 219.588882,123.203094 222.222672,115.471275 
	C223.241104,112.481598 225.009628,109.747444 226.466354,106.837090 
	C202.911911,98.850914 193.042053,81.561623 195.214203,64.847343 
	C197.643967,46.150642 209.726227,35.090336 225.043900,32.068188 
	C237.286652,29.652718 248.401154,32.885128 258.082489,40.626396 
	C267.752716,48.358822 271.665710,59.195461 273.251007,71.806648 
	C308.791290,60.959087 343.702789,50.303452 378.905548,39.558907 
	C369.561310,33.594296 360.393219,27.742123 350.032227,21.128485 
	C355.639587,20.299301 359.959137,19.471334 364.318024,19.056257 
	C372.805908,18.247993 381.330261,17.815084 389.813110,16.963604 
	C401.663025,15.774149 413.483185,14.291488 425.326874,13.035729 
	C432.650085,12.259262 439.998962,11.727491 447.326233,10.986011 
	C459.999329,9.703565 472.659027,8.286024 485.337250,7.058515 
	C488.308655,6.770820 491.331665,7.015965 495.134827,7.015965 
	C476.786530,31.735256 458.737579,56.051224 440.575012,80.520294 
	C434.897400,77.193176 429.781769,74.195374 423.256561,70.371536 
	C417.183899,77.640045 410.846497,85.225433 404.706818,92.574188 
	C405.118958,92.617348 406.947021,93.030167 408.757233,92.962776 
	C421.516937,92.487770 433.108551,96.432755 443.491669,103.308540 
	C454.710571,110.737793 461.842896,121.601318 464.917633,134.674057 
	C469.268982,153.174469 465.335419,170.139587 453.814819,185.684387 
M407.052155,41.963478 
	C407.052155,50.438137 407.052155,58.912796 407.052155,67.387451 
	C407.615784,67.773552 408.179443,68.159660 408.743073,68.545761 
	C413.134155,63.652241 417.525238,58.758728 422.606598,54.051609 
	C427.309204,56.770462 432.011841,59.489315 436.949219,62.343918 
	C446.667542,49.224762 456.123932,36.459202 466.109467,22.979336 
	C440.672119,25.507555 416.304413,27.929464 390.763702,30.467958 
	C396.887024,34.421734 402.011200,37.730350 407.052155,41.963478 
M310.396088,151.959412 
	C299.837006,143.406967 289.180420,134.970520 278.780457,126.228783 
	C275.803314,123.726318 273.300751,123.024353 269.494720,124.283112 
	C258.038513,128.072006 246.429901,131.400055 234.999420,134.196930 
	C240.988632,121.756294 246.899292,109.276344 253.076416,96.929726 
	C253.770355,95.542686 255.856522,94.376015 257.494904,94.021545 
	C263.983185,92.617752 270.715454,92.147202 277.059967,90.306160 
	C307.710297,81.412071 338.270081,72.205467 368.848480,63.064495 
	C377.768585,60.397964 386.678619,57.685131 395.501434,54.720268 
	C396.769531,54.294144 397.518799,52.324043 398.508148,51.068466 
	C397.084869,50.667427 395.681152,50.119366 394.230194,49.926151 
	C393.482666,49.826614 392.652313,50.362698 391.857269,50.604656 
	C356.070312,61.496250 320.326721,72.534004 284.465668,83.175964 
	C275.353058,85.880188 265.866974,87.325851 256.352081,89.393349 
	C257.106659,84.031906 257.906952,79.786041 258.269653,75.503113 
	C259.439789,61.684731 251.590439,50.125282 238.825989,46.602356 
	C228.564194,43.770149 218.372681,47.984257 212.711380,57.400528 
	C207.541077,66.000183 208.669815,76.532372 215.818283,84.063705 
	C221.432846,89.978958 228.628265,92.873741 236.579697,93.996559 
	C240.264252,94.516853 243.977890,94.831299 248.820831,95.364960 
	C241.293976,109.945152 234.138199,123.806549 226.209457,137.833466 
	C191.588318,148.452515 156.956268,159.036118 122.351089,169.706940 
	C107.140617,174.397247 91.984909,179.265152 76.237175,184.545441 
	C62.394646,264.486359 48.552120,344.427246 34.626747,424.846619 
	C153.414566,447.228821 271.587494,469.495148 390.045807,491.815277 
	C390.744446,488.809113 391.385651,486.254944 391.929443,483.680237 
	C404.790558,422.783661 417.670807,361.891083 430.472076,300.981934 
	C433.540771,286.380859 436.340271,271.723175 439.067841,256.402344 
	C406.027649,229.619827 372.987457,202.837296 339.873901,175.137146 
	C341.172333,159.888702 342.470764,144.640259 343.843719,128.516342 
	C332.395844,136.805573 321.701202,144.549393 310.396088,151.959412 
M371.762329,115.247131 
	C362.285889,123.850830 358.020020,134.836548 358.278595,147.339142 
	C359.038940,184.107971 397.816650,206.044144 429.803101,187.995255 
	C445.535706,179.117874 454.780670,161.451706 452.761963,144.123123 
	C450.711517,126.521568 439.315369,112.829063 421.795105,108.417519 
	C414.473328,106.573914 406.683868,106.450188 399.081512,105.892326 
	C388.992493,105.151993 380.071381,108.306862 371.762329,115.247131 
M89.698837,124.633179 
	C93.728989,139.877151 102.268692,151.222076 118.176514,154.967667 
	C146.031296,161.526260 174.169189,134.953903 169.759521,106.658478 
	C167.082886,89.483284 156.044739,76.299889 141.461578,73.517067 
	C131.744629,71.662849 122.655724,74.844223 113.860977,78.474800 
	C97.718849,85.138451 84.574707,100.075127 89.698837,124.633179 
z"/>
<path fill="#FE3D81" opacity="1.000000" stroke="none" 
	d="
M439.263550,257.091522 
	C436.340271,271.723175 433.540771,286.380859 430.472076,300.981934 
	C417.670807,361.891083 404.790558,422.783661 391.929443,483.680237 
	C391.385651,486.254944 390.744446,488.809113 390.045807,491.815277 
	C271.587494,469.495148 153.414566,447.228821 34.626747,424.846619 
	C48.552120,344.427246 62.394646,264.486359 76.739319,184.558899 
	C113.427231,219.391052 149.595367,254.228073 185.809372,289.017365 
	C196.836197,299.610382 207.989426,310.071777 219.255142,320.821838 
	C224.624237,326.155914 229.731827,331.361053 235.100098,336.281738 
	C236.149475,337.243622 238.485596,337.832184 239.758865,337.351013 
	C247.640564,334.372345 255.388138,331.038849 263.525330,327.798340 
	C269.904602,325.229126 275.938782,322.684692 282.349854,320.101990 
	C294.493286,315.290558 306.259827,310.517395 318.370850,305.689850 
	C358.898041,289.454163 399.080811,273.272858 439.263550,257.091522 
M166.760818,366.213257 
	C126.400986,382.565887 86.029526,398.890045 45.711372,415.344788 
	C43.390926,416.291840 38.809799,416.753113 40.328754,420.424927 
	C41.895073,424.211243 45.287601,420.953369 47.544655,420.053558 
	C64.682976,413.221191 81.718964,406.132782 98.820816,399.208099 
	C139.953903,382.553040 181.118301,365.975189 222.214630,349.230103 
	C224.442032,348.322571 228.736023,348.581696 227.477234,344.352325 
	C227.294662,343.738892 222.423676,343.756104 220.180481,344.641968 
	C202.557663,351.601257 185.046478,358.843262 166.760818,366.213257 
M294.562775,398.937836 
	C299.153656,403.278229 303.838531,407.524017 308.319550,411.975037 
	C330.532288,434.039398 352.691101,456.158051 374.869446,478.257050 
	C375.695190,479.079803 376.390564,480.258087 377.386749,480.633118 
	C378.921021,481.210785 380.663391,481.235779 382.317474,481.495239 
	C381.925171,479.920990 382.023071,477.883270 381.052032,476.856140 
	C377.633453,473.240082 373.758026,470.061798 370.215240,466.556366 
	C329.737610,426.505707 289.289337,386.425293 248.833344,346.352722 
	C248.478394,346.001129 248.184967,345.479462 247.758896,345.326385 
	C245.930588,344.669525 244.063339,344.121063 242.210281,343.533112 
	C242.858566,345.262604 243.039520,347.455353 244.225555,348.651733 
	C260.757233,365.327118 277.426453,381.866211 294.562775,398.937836 
z"/>
<path fill="#4D3DE3" opacity="1.000000" stroke="none" 
	d="
M439.165710,256.746948 
	C399.080811,273.272858 358.898041,289.454163 318.350586,305.262787 
	C317.656677,280.065125 304.005615,262.241180 280.434235,258.549316 
	C258.900208,255.176590 241.937775,264.635651 228.774597,281.358948 
	C219.659256,292.939606 217.966507,306.440552 219.084778,320.593475 
	C207.989426,310.071777 196.836197,299.610382 185.809372,289.017365 
	C149.595367,254.228073 113.427231,219.391052 77.022903,184.312393 
	C91.984909,179.265152 107.140617,174.397247 122.351089,169.706940 
	C156.956268,159.036118 191.588318,148.452515 226.500977,138.111847 
	C223.336685,144.850311 219.803726,151.270905 216.466949,157.791901 
	C215.300568,160.071350 212.124008,162.344604 215.342606,164.999222 
	C215.641220,165.245514 219.477982,162.212662 220.714737,160.133148 
	C225.642670,151.847198 230.191513,143.335785 234.880737,134.907837 
	C246.429901,131.400055 258.038513,128.072006 269.494720,124.283112 
	C273.300751,123.024353 275.803314,123.726318 278.780457,126.228783 
	C289.180420,134.970520 299.837006,143.406967 310.514313,152.385803 
	C293.382599,165.649155 276.132690,178.486130 258.074280,191.924774 
	C268.792938,193.856308 278.409668,195.589264 288.092255,197.664734 
	C291.449463,208.366394 294.740814,218.725555 298.327515,230.014252 
	C302.311584,223.063675 305.832062,216.921829 309.723145,210.784393 
	C318.475403,214.079651 326.857147,217.370544 335.568573,220.790878 
	C335.751801,218.484253 335.853973,216.833710 336.018219,215.189346 
	C337.321259,202.143829 338.636047,189.099487 339.947266,176.054779 
	C372.987457,202.837296 406.027649,229.619827 439.165710,256.746948 
M184.643387,170.997986 
	C182.428711,171.708939 180.167114,172.300583 178.007034,173.150299 
	C164.451416,178.482712 154.614212,187.401398 152.153366,202.315491 
	C149.551895,218.081818 154.029007,231.757111 166.747986,241.913727 
	C183.642349,255.404602 210.665695,254.000366 226.548691,239.176056 
	C236.310242,230.065170 240.452087,218.861496 239.579987,205.561508 
	C238.129990,183.448074 210.413132,161.548615 184.643387,170.997986 
z"/>
<path fill="#FF3F83" opacity="1.000000" stroke="none" 
	d="
M372.049805,115.033859 
	C380.071381,108.306862 388.992493,105.151993 399.081512,105.892326 
	C406.683868,106.450188 414.473328,106.573914 421.795105,108.417519 
	C439.315369,112.829063 450.711517,126.521568 452.761963,144.123123 
	C454.780670,161.451706 445.535706,179.117874 429.803101,187.995255 
	C397.816650,206.044144 359.038940,184.107971 358.278595,147.339142 
	C358.020020,134.836548 362.285889,123.850830 372.049805,115.033859 
M379.208038,159.162384 
	C386.739380,169.245453 395.669800,177.480408 408.347931,180.420685 
	C410.252319,180.862335 412.982666,180.764725 414.423401,179.694656 
	C424.011292,172.573257 432.260620,164.119339 436.929504,152.917358 
	C438.347656,149.514847 439.063019,145.479568 438.854370,141.804855 
	C438.307281,132.169083 428.591095,127.099564 420.349945,132.092087 
	C417.464325,133.840195 415.130432,136.648804 412.890808,139.269104 
	C410.886383,141.614243 409.358276,144.366531 408.014038,146.356033 
	C403.694092,141.440872 400.072479,135.885406 395.125519,132.031067 
	C387.867432,126.375999 379.029358,129.723022 376.000702,138.453323 
	C373.529297,145.577133 375.245850,152.204132 379.208038,159.162384 
z"/>
<path fill="#7A6FFF" opacity="1.000000" stroke="none" 
	d="
M89.571671,124.232010 
	C84.574707,100.075127 97.718849,85.138451 113.860977,78.474800 
	C122.655724,74.844223 131.744629,71.662849 141.461578,73.517067 
	C156.044739,76.299889 167.082886,89.483284 169.759521,106.658478 
	C174.169189,134.953903 146.031296,161.526260 118.176514,154.967667 
	C102.268692,151.222076 93.728989,139.877151 89.571671,124.232010 
M126.010605,128.714752 
	C129.323547,126.225784 132.636505,123.736824 136.461868,120.862885 
	C144.377808,124.239105 148.962082,121.632507 150.519791,111.745865 
	C151.666565,104.467354 147.602036,96.321831 140.832352,92.331764 
	C125.439240,83.259026 104.188423,95.242485 103.002655,113.664169 
	C102.127159,127.265503 111.701775,139.720169 124.685738,141.869537 
	C138.864883,144.216751 154.341003,134.817276 157.493179,121.808945 
	C157.949188,119.927124 158.041611,117.779564 157.595062,115.925293 
	C157.339432,114.863892 155.657135,114.146057 154.617172,113.273544 
	C154.030472,114.333687 152.885803,115.427452 152.947357,116.448540 
	C153.356827,123.243332 149.720108,127.928192 144.810760,131.624649 
	C137.268250,137.303711 128.809433,139.330338 120.005333,134.896439 
	C112.093979,130.912125 107.713348,124.164330 108.074135,115.130455 
	C108.432030,106.168839 113.271599,99.752647 121.210297,96.001282 
	C132.438721,90.695358 144.166000,96.601021 145.209335,108.189476 
	C145.465225,111.031914 144.164185,115.942741 142.321838,116.656105 
	C138.108383,118.287590 137.709610,113.423714 136.027252,110.731705 
	C134.458038,108.220726 132.609650,105.411179 130.154434,104.033600 
	C126.085510,101.750580 122.033180,103.328857 118.851830,106.565018 
	C114.567551,110.923103 113.867958,116.280594 115.523552,121.860695 
	C116.895515,126.484802 120.244644,128.968628 126.010605,128.714752 
z"/>
<path fill="#FBC738" opacity="1.000000" stroke="none" 
	d="
M339.910583,175.595963 
	C338.636047,189.099487 337.321259,202.143829 336.018219,215.189346 
	C335.853973,216.833710 335.751801,218.484253 335.568573,220.790878 
	C326.857147,217.370544 318.475403,214.079651 309.592712,210.421158 
	C309.514069,208.151489 309.692200,206.153046 310.398865,204.363235 
	C314.590637,193.746017 318.983246,183.207870 323.151947,172.581818 
	C326.218811,164.764343 329.046600,156.853088 332.165619,148.960114 
	C332.237915,148.963104 332.125549,148.989639 331.698914,149.134552 
	C321.862274,160.254837 312.443237,171.348709 302.772797,182.218918 
	C298.101105,187.470230 292.956757,192.301041 288.026398,197.322235 
	C278.409668,195.589264 268.792938,193.856308 258.074280,191.924774 
	C276.132690,178.486130 293.382599,165.649155 310.819550,152.552704 
	C321.701202,144.549393 332.395844,136.805573 343.843719,128.516342 
	C342.470764,144.640259 341.172333,159.888702 339.910583,175.595963 
z"/>
<path fill="#65D5C1" opacity="1.000000" stroke="none" 
	d="
M234.940079,134.552399 
	C230.191513,143.335785 225.642670,151.847198 220.714737,160.133148 
	C219.477982,162.212662 215.641220,165.245514 215.342606,164.999222 
	C212.124008,162.344604 215.300568,160.071350 216.466949,157.791901 
	C219.803726,151.270905 223.336685,144.850311 226.887466,138.029083 
	C234.138199,123.806549 241.293976,109.945152 248.820831,95.364960 
	C243.977890,94.831299 240.264252,94.516853 236.579697,93.996559 
	C228.628265,92.873741 221.432846,89.978958 215.818283,84.063705 
	C208.669815,76.532372 207.541077,66.000183 212.711380,57.400528 
	C218.372681,47.984257 228.564194,43.770149 238.825989,46.602356 
	C251.590439,50.125282 259.439789,61.684731 258.269653,75.503113 
	C257.906952,79.786041 257.106659,84.031906 256.352081,89.393349 
	C265.866974,87.325851 275.353058,85.880188 284.465668,83.175964 
	C320.326721,72.534004 356.070312,61.496250 391.857269,50.604656 
	C392.652313,50.362698 393.482666,49.826614 394.230194,49.926151 
	C395.681152,50.119366 397.084869,50.667427 398.508148,51.068466 
	C397.518799,52.324043 396.769531,54.294144 395.501434,54.720268 
	C386.678619,57.685131 377.768585,60.397964 368.848480,63.064495 
	C338.270081,72.205467 307.710297,81.412071 277.059967,90.306160 
	C270.715454,92.147202 263.983185,92.617752 257.494904,94.021545 
	C255.856522,94.376015 253.770355,95.542686 253.076416,96.929726 
	C246.899292,109.276344 240.988632,121.756294 234.940079,134.552399 
M216.361298,61.257450 
	C212.566971,72.015938 215.796158,81.244514 226.323944,85.465668 
	C232.595734,87.980370 239.780457,88.260712 246.579041,89.400833 
	C249.904846,89.958580 251.484283,87.932510 251.791580,84.933060 
	C252.313217,79.841827 253.194870,74.700287 252.921127,69.634140 
	C252.450180,60.918373 245.675095,53.663120 236.904495,51.431549 
	C228.833466,49.377975 222.056931,52.457909 216.361298,61.257450 
z"/>
<path fill="#FCC839" opacity="1.000000" stroke="none" 
	d="
M407.135345,41.038971 
	C402.011200,37.730350 396.887024,34.421734 390.763702,30.467958 
	C416.304413,27.929464 440.672119,25.507555 466.109467,22.979336 
	C456.123932,36.459202 446.667542,49.224762 436.949219,62.343918 
	C432.011841,59.489315 427.309204,56.770462 422.065460,53.696747 
	C420.609283,52.530170 419.694244,51.718452 418.432892,50.599518 
	C420.464630,49.247448 421.948303,48.219532 423.471130,47.253437 
	C431.994019,41.846497 440.526337,36.454475 449.300354,31.039436 
	C449.813843,30.865776 450.082428,30.710030 450.351044,30.554285 
	C449.876373,30.672865 449.401672,30.791443 448.515289,30.878098 
	C443.762756,31.925684 439.421814,33.004761 435.081146,34.084789 
	C425.765808,36.402596 416.450592,38.720879 407.135345,41.038971 
z"/>
<path fill="#FF5B02" opacity="1.000000" stroke="none" 
	d="
M449.055450,31.057350 
	C440.526337,36.454475 431.994019,41.846497 423.471130,47.253437 
	C421.948303,48.219532 420.464630,49.247448 418.432892,50.599518 
	C419.694244,51.718452 420.609283,52.530170 421.720337,53.603546 
	C417.525238,58.758728 413.134155,63.652241 408.743073,68.545761 
	C408.179443,68.159660 407.615784,67.773552 407.052155,67.387451 
	C407.052155,58.912796 407.052155,50.438137 407.093750,41.501221 
	C416.450592,38.720879 425.765808,36.402596 435.081146,34.084789 
	C439.421814,33.004761 443.762756,31.925684 448.546570,30.915663 
	C448.989532,30.985149 449.055450,31.057352 449.055450,31.057350 
z"/>
<path fill="#5FD3BE" opacity="1.000000" stroke="none" 
	d="
M219.255142,320.821838 
	C217.966507,306.440552 219.659256,292.939606 228.774597,281.358948 
	C241.937775,264.635651 258.900208,255.176590 280.434235,258.549316 
	C304.005615,262.241180 317.656677,280.065125 318.006165,305.317169 
	C306.259827,310.517395 294.493286,315.290558 282.301025,319.687653 
	C280.616791,313.646210 279.758545,307.852234 277.991516,302.350159 
	C276.072266,296.373871 271.972809,293.296448 266.965851,294.195374 
	C261.525269,295.172119 256.274963,297.208435 250.988205,298.769012 
	C251.277191,299.906097 251.278732,300.276642 251.454803,300.522003 
	C251.739365,300.918549 252.076141,301.387054 252.498962,301.558441 
	C258.558350,304.014374 260.481720,309.113312 261.267212,315.014008 
	C261.836761,319.292816 262.537811,323.554077 263.180237,327.823181 
	C255.388138,331.038849 247.640564,334.372345 239.758865,337.351013 
	C238.485596,337.832184 236.149475,337.243622 235.100098,336.281738 
	C229.731827,331.361053 224.624237,326.155914 219.255142,320.821838 
M257.275238,287.882965 
	C259.363647,286.130341 261.972046,284.722260 263.416199,282.542786 
	C265.482513,279.424347 265.443604,275.331360 262.359985,273.117249 
	C260.189056,271.558472 256.172638,270.710571 253.896011,271.684967 
	C251.650513,272.646027 249.408981,276.210754 249.210098,278.790771 
	C248.854004,283.410126 251.613571,286.842346 257.275238,287.882965 
z"/>
<path fill="#A0377F" opacity="1.000000" stroke="none" 
	d="
M167.130859,366.105713 
	C185.046478,358.843262 202.557663,351.601257 220.180481,344.641968 
	C222.423676,343.756104 227.294662,343.738892 227.477234,344.352325 
	C228.736023,348.581696 224.442032,348.322571 222.214630,349.230103 
	C181.118301,365.975189 139.953903,382.553040 98.820816,399.208099 
	C81.718964,406.132782 64.682976,413.221191 47.544655,420.053558 
	C45.287601,420.953369 41.895073,424.211243 40.328754,420.424927 
	C38.809799,416.753113 43.390926,416.291840 45.711372,415.344788 
	C86.029526,398.890045 126.400986,382.565887 167.130859,366.105713 
z"/>
<path fill="#A0377F" opacity="1.000000" stroke="none" 
	d="
M294.312439,398.688202 
	C277.426453,381.866211 260.757233,365.327118 244.225555,348.651733 
	C243.039520,347.455353 242.858566,345.262604 242.210281,343.533112 
	C244.063339,344.121063 245.930588,344.669525 247.758896,345.326385 
	C248.184967,345.479462 248.478394,346.001129 248.833344,346.352722 
	C289.289337,386.425293 329.737610,426.505707 370.215240,466.556366 
	C373.758026,470.061798 377.633453,473.240082 381.052032,476.856140 
	C382.023071,477.883270 381.925171,479.920990 382.317474,481.495239 
	C380.663391,481.235779 378.921021,481.210785 377.386749,480.633118 
	C376.390564,480.258087 375.695190,479.079803 374.869446,478.257050 
	C352.691101,456.158051 330.532288,434.039398 308.319550,411.975037 
	C303.838531,407.524017 299.153656,403.278229 294.312439,398.688202 
z"/>
<path fill="#FCFDFD" opacity="1.000000" stroke="none" 
	d="
M263.525330,327.798340 
	C262.537811,323.554077 261.836761,319.292816 261.267212,315.014008 
	C260.481720,309.113312 258.558350,304.014374 252.498962,301.558441 
	C252.076141,301.387054 251.739365,300.918549 251.454803,300.522003 
	C251.278732,300.276642 251.277191,299.906097 250.988205,298.769012 
	C256.274963,297.208435 261.525269,295.172119 266.965851,294.195374 
	C271.972809,293.296448 276.072266,296.373871 277.991516,302.350159 
	C279.758545,307.852234 280.616791,313.646210 281.924133,319.725952 
	C275.938782,322.684692 269.904602,325.229126 263.525330,327.798340 
z"/>
<path fill="#FE3E82" opacity="1.000000" stroke="none" 
	d="
M185.046799,170.930481 
	C210.413132,161.548615 238.129990,183.448074 239.579987,205.561508 
	C240.452087,218.861496 236.310242,230.065170 226.548691,239.176056 
	C210.665695,254.000366 183.642349,255.404602 166.747986,241.913727 
	C154.029007,231.757111 149.551895,218.081818 152.153366,202.315491 
	C154.614212,187.401398 164.451416,178.482712 178.007034,173.150299 
	C180.167114,172.300583 182.428711,171.708939 185.046799,170.930481 
M204.375931,193.075943 
	C196.782608,190.638428 189.218719,188.102142 181.577271,185.826218 
	C179.405975,185.179504 176.958420,184.881210 174.727905,185.156189 
	C171.808487,185.516068 170.129089,187.704575 171.308105,190.568481 
	C176.556122,203.316238 181.808563,216.072266 187.536484,228.607315 
	C189.793610,233.546860 193.560318,233.728516 196.801086,229.341507 
	C202.030930,222.261932 207.102982,215.033951 211.741104,207.558090 
	C216.354401,200.122253 215.185425,197.447861 206.959595,194.058746 
	C206.344818,193.805450 205.725418,193.563385 204.375931,193.075943 
z"/>
<path fill="#FE5A02" opacity="1.000000" stroke="none" 
	d="
M288.092255,197.664734 
	C292.956757,192.301041 298.101105,187.470230 302.772797,182.218918 
	C312.443237,171.348709 321.862274,160.254837 331.691650,149.125916 
	C331.998627,148.998886 331.980896,148.983627 331.980896,148.983643 
	C329.046600,156.853088 326.218811,164.764343 323.151947,172.581818 
	C318.983246,183.207870 314.590637,193.746017 310.398865,204.363235 
	C309.692200,206.153046 309.514069,208.151489 309.222168,210.416779 
	C305.832062,216.921829 302.311584,223.063675 298.327515,230.014252 
	C294.740814,218.725555 291.449463,208.366394 288.092255,197.664734 
z"/>
<path fill="#FFFDFE" opacity="1.000000" stroke="none" 
	d="
M379.038635,158.835541 
	C375.245850,152.204132 373.529297,145.577133 376.000702,138.453323 
	C379.029358,129.723022 387.867432,126.375999 395.125519,132.031067 
	C400.072479,135.885406 403.694092,141.440872 408.014038,146.356033 
	C409.358276,144.366531 410.886383,141.614243 412.890808,139.269104 
	C415.130432,136.648804 417.464325,133.840195 420.349945,132.092087 
	C428.591095,127.099564 438.307281,132.169083 438.854370,141.804855 
	C439.063019,145.479568 438.347656,149.514847 436.929504,152.917358 
	C432.260620,164.119339 424.011292,172.573257 414.423401,179.694656 
	C412.982666,180.764725 410.252319,180.862335 408.347931,180.420685 
	C395.669800,177.480408 386.739380,169.245453 379.038635,158.835541 
z"/>
<path fill="#F9F8FF" opacity="1.000000" stroke="none" 
	d="
M125.628937,128.780334 
	C120.244644,128.968628 116.895515,126.484802 115.523552,121.860695 
	C113.867958,116.280594 114.567551,110.923103 118.851830,106.565018 
	C122.033180,103.328857 126.085510,101.750580 130.154434,104.033600 
	C132.609650,105.411179 134.458038,108.220726 136.027252,110.731705 
	C137.709610,113.423714 138.108383,118.287590 142.321838,116.656105 
	C144.164185,115.942741 145.465225,111.031914 145.209335,108.189476 
	C144.166000,96.601021 132.438721,90.695358 121.210297,96.001282 
	C113.271599,99.752647 108.432030,106.168839 108.074135,115.130455 
	C107.713348,124.164330 112.093979,130.912125 120.005333,134.896439 
	C128.809433,139.330338 137.268250,137.303711 144.810760,131.624649 
	C149.720108,127.928192 153.356827,123.243332 152.947357,116.448540 
	C152.885803,115.427452 154.030472,114.333687 154.617172,113.273544 
	C155.657135,114.146057 157.339432,114.863892 157.595062,115.925293 
	C158.041611,117.779564 157.949188,119.927124 157.493179,121.808945 
	C154.341003,134.817276 138.864883,144.216751 124.685738,141.869537 
	C111.701775,139.720169 102.127159,127.265503 103.002655,113.664169 
	C104.188423,95.242485 125.439240,83.259026 140.832352,92.331764 
	C147.602036,96.321831 151.666565,104.467354 150.519791,111.745865 
	C148.962082,121.632507 144.377808,124.239105 136.461868,120.862885 
	C132.636505,123.736824 129.323547,126.225784 125.628937,128.780334 
M123.646729,123.760086 
	C128.786072,122.476593 131.043121,119.378395 130.809464,113.183479 
	C130.751297,111.641693 129.886185,109.438362 128.714386,108.817070 
	C127.436401,108.139488 125.101669,108.445107 123.697708,109.198357 
	C118.874786,111.785942 118.584618,119.347069 123.646729,123.760086 
z"/>
<path fill="#FE5A02" opacity="1.000000" stroke="none" 
	d="
M332.005890,149.007538 
	C332.125549,148.989639 332.237915,148.963104 332.165588,148.960098 
	C331.980896,148.983627 331.998627,148.998886 332.005890,149.007538 
z"/>
<path fill="#FDFFFE" opacity="1.000000" stroke="none" 
	d="
M216.559631,60.922791 
	C222.056931,52.457909 228.833466,49.377975 236.904495,51.431549 
	C245.675095,53.663120 252.450180,60.918373 252.921127,69.634140 
	C253.194870,74.700287 252.313217,79.841827 251.791580,84.933060 
	C251.484283,87.932510 249.904846,89.958580 246.579041,89.400833 
	C239.780457,88.260712 232.595734,87.980370 226.323944,85.465668 
	C215.796158,81.244514 212.566971,72.015938 216.559631,60.922791 
z"/>
<path fill="#FF5B02" opacity="1.000000" stroke="none" 
	d="
M448.958252,30.947586 
	C449.401672,30.791443 449.876373,30.672865 450.351044,30.554285 
	C450.082428,30.710030 449.813843,30.865776 449.300354,31.039436 
	C449.055450,31.057352 448.989532,30.985149 448.958252,30.947586 
z"/>
<path fill="#FBFEFD" opacity="1.000000" stroke="none" 
	d="
M256.895660,287.904877 
	C251.613571,286.842346 248.854004,283.410126 249.210098,278.790771 
	C249.408981,276.210754 251.650513,272.646027 253.896011,271.684967 
	C256.172638,270.710571 260.189056,271.558472 262.359985,273.117249 
	C265.443604,275.331360 265.482513,279.424347 263.416199,282.542786 
	C261.972046,284.722260 259.363647,286.130341 256.895660,287.904877 
z"/>
<path fill="#FFFDFD" opacity="1.000000" stroke="none" 
	d="
M204.742050,193.196030 
	C205.725418,193.563385 206.344818,193.805450 206.959595,194.058746 
	C215.185425,197.447861 216.354401,200.122253 211.741104,207.558090 
	C207.102982,215.033951 202.030930,222.261932 196.801086,229.341507 
	C193.560318,233.728516 189.793610,233.546860 187.536484,228.607315 
	C181.808563,216.072266 176.556122,203.316238 171.308105,190.568481 
	C170.129089,187.704575 171.808487,185.516068 174.727905,185.156189 
	C176.958420,184.881210 179.405975,185.179504 181.577271,185.826218 
	C189.218719,188.102142 196.782608,190.638428 204.742050,193.196030 
z"/>
<path fill="#7C72FF" opacity="1.000000" stroke="none" 
	d="
M123.290543,123.620453 
	C118.584618,119.347069 118.874786,111.785942 123.697708,109.198357 
	C125.101669,108.445107 127.436401,108.139488 128.714386,108.817070 
	C129.886185,109.438362 130.751297,111.641693 130.809464,113.183479 
	C131.043121,119.378395 128.786072,122.476593 123.290543,123.620453 
z"/>
</svg>